{"glyphs":{"0":{"ha":833,"x_min":0,"x_max":0,"o":"m 388 982 b 264 858 319 982 264 926 l 264 113 b 388 -10 264 46 319 -10 l 450 -10 b 569 113 515 -7 569 46 l 569 858 b 450 982 569 925 517 979 z m 417 78 b 364 131 388 78 364 101 l 364 840 b 417 894 364 869 388 894 b 469 840 446 894 469 869 l 469 131 b 417 78 469 101 446 78 z "},"1":{"ha":778,"x_min":0,"x_max":0,"o":"m 264 972 b 286 900 275 947 282 908 b 321 875 290 890 301 879 b 339 851 336 872 339 863 l 339 31 b 369 0 339 14 353 0 l 439 0 l 439 906 b 386 972 439 978 386 972 z "},"2":{"ha":833,"x_min":0,"x_max":0,"o":"m 408 894 b 461 842 438 894 461 871 l 461 679 b 418 536 461 631 418 536 l 297 256 b 256 85 253 158 256 85 l 256 0 l 511 0 b 565 28 543 0 558 15 b 597 100 569 36 586 74 l 356 100 l 356 115 b 399 253 356 160 399 253 l 539 572 b 561 690 563 622 561 690 l 561 858 b 438 982 561 926 506 982 l 379 982 b 256 858 311 982 256 926 l 256 815 b 282 761 256 783 269 768 b 356 728 290 757 329 739 l 356 842 b 408 894 356 871 379 894 z "},"3":{"ha":833,"x_min":0,"x_max":0,"o":"m 556 114 b 435 -10 556 47 503 -7 l 375 -10 b 250 114 306 -10 250 46 l 250 157 b 278 211 250 189 264 204 b 350 244 285 215 325 232 l 350 131 b 403 78 350 101 374 78 b 456 131 432 78 456 101 l 456 389 b 411 436 454 413 435 432 b 381 467 394 436 382 450 l 381 536 l 403 536 b 456 583 431 536 453 557 l 456 842 b 403 894 456 871 432 894 b 350 842 374 894 350 871 l 350 729 b 278 761 325 740 285 757 b 250 815 264 768 250 783 l 250 858 b 375 982 250 926 306 982 l 435 982 b 556 858 503 979 556 925 l 556 571 b 521 486 556 539 542 508 b 556 403 542 464 556 435 z "},"4":{"ha":833,"x_min":0,"x_max":0,"o":"m 501 283 l 501 972 l 429 972 b 394 942 422 972 403 971 l 204 279 l 242 207 b 294 178 249 193 261 178 l 401 178 l 401 29 b 432 0 403 14 415 0 l 501 0 l 501 178 l 514 178 b 571 207 547 178 564 193 b 604 283 575 215 593 257 z m 401 611 l 401 283 l 307 283 z "},"5":{"ha":833,"x_min":0,"x_max":0,"o":"m 368 621 l 368 856 b 385 872 368 865 375 872 l 496 872 b 550 900 528 872 543 888 b 582 972 554 908 571 947 l 321 972 b 268 906 321 972 268 975 l 268 572 b 319 521 269 544 292 522 l 421 521 b 475 468 451 521 475 497 l 475 131 b 421 78 475 101 451 78 b 368 131 392 78 368 101 l 368 329 b 296 297 343 318 304 300 b 268 243 283 290 268 275 l 268 113 b 392 -10 269 46 324 -10 l 454 -10 b 575 113 521 -7 575 46 l 575 499 b 451 621 574 567 519 621 z "},"6":{"ha":833,"x_min":0,"x_max":0,"o":"m 363 622 l 363 840 b 417 893 363 869 388 893 b 469 840 446 893 469 869 l 469 729 l 469 728 b 542 761 494 739 535 757 b 569 821 556 768 569 789 l 569 857 b 449 981 569 925 515 979 l 449 982 l 388 982 b 264 857 319 982 264 926 l 264 114 b 388 -10 264 46 319 -10 l 450 -10 b 569 114 517 -8 569 46 l 569 485 b 435 622 569 553 531 622 z m 469 131 b 417 76 469 103 444 76 b 363 131 388 76 363 101 l 363 525 l 417 525 b 469 478 444 525 469 504 z "},"7":{"ha":811,"x_min":0,"x_max":0,"o":"m 224 972 l 257 900 b 311 872 264 888 278 872 l 446 872 b 310 31 394 732 314 447 b 340 0 310 14 324 0 l 410 0 b 588 972 410 631 588 972 z "},"8":{"ha":833,"x_min":0,"x_max":0,"o":"m 526 486 b 568 582 571 500 568 550 l 568 858 b 449 982 568 925 515 979 l 383 982 b 263 858 317 979 263 925 l 263 582 b 307 486 263 550 263 500 b 263 390 260 474 263 421 l 263 114 b 383 -10 263 47 317 -7 l 449 -10 b 568 114 515 -7 568 47 l 568 390 b 526 486 568 421 574 474 z m 468 578 b 415 525 468 549 444 525 b 363 578 386 525 363 549 l 363 840 b 415 894 363 871 386 894 b 468 840 444 894 468 871 z m 468 131 b 415 78 468 101 444 78 b 363 131 386 78 363 101 l 363 393 b 415 447 363 424 386 447 b 468 393 444 447 468 424 z "},"9":{"ha":833,"x_min":0,"x_max":0,"o":"m 383 982 b 264 858 317 981 264 925 l 264 531 b 403 390 264 467 285 390 l 469 390 l 469 132 b 417 78 469 101 446 78 b 364 132 386 78 364 101 l 364 246 b 292 211 339 235 300 215 b 264 157 279 204 264 189 l 264 114 b 385 -10 264 47 318 -7 l 446 -10 b 569 114 514 -10 569 46 l 569 858 b 446 982 569 926 514 982 z m 469 479 l 417 479 b 364 531 376 479 364 494 l 364 846 b 417 894 367 874 389 894 b 469 840 446 894 469 871 z "},"A":{"ha":778,"x_min":0,"x_max":0,"o":"m 590 0 l 481 0 l 393 669 l 306 0 l 196 0 l 343 972 l 397 972 b 450 919 439 972 446 946 z "},"Á":{"ha":778,"x_min":0,"x_max":0,"o":"m 347 1015 l 401 1132 l 476 1132 b 486 1122 476 1132 490 1133 l 457 1047 b 408 1015 444 1014 413 1015 z m 586 0 l 476 0 l 389 669 l 301 0 l 192 0 l 339 972 l 393 972 b 446 919 435 972 442 946 z "},"Â":{"ha":778,"x_min":0,"x_max":0,"o":"m 269 1015 l 350 1132 l 419 1132 l 500 1015 l 460 1015 b 406 1047 457 1015 428 1013 l 385 1078 l 363 1047 b 310 1015 340 1013 313 1015 z m 586 0 l 476 0 l 389 669 l 301 0 l 192 0 l 339 972 l 393 972 b 446 919 435 972 442 946 z "},"À":{"ha":778,"x_min":0,"x_max":0,"o":"m 333 1014 l 279 1132 l 340 1132 b 389 1100 344 1132 376 1133 l 418 1025 b 408 1014 422 1014 408 1014 z m 586 0 l 476 0 l 389 669 l 301 0 l 192 0 l 339 972 l 393 972 b 446 919 435 972 442 946 z "},"Ã":{"ha":778,"x_min":0,"x_max":0,"o":"m 260 1015 b 371 1094 260 1015 247 1146 b 442 1110 417 1075 440 1074 b 457 1124 442 1126 457 1124 l 496 1124 b 390 1032 500 1094 497 988 b 314 1025 339 1053 318 1063 b 300 1015 314 1025 314 1015 z m 586 0 l 476 0 l 389 669 l 301 0 l 192 0 l 339 972 l 393 972 b 446 919 435 972 442 946 z "},"B":{"ha":833,"x_min":0,"x_max":0,"o":"m 511 486 b 568 565 569 504 568 565 l 568 850 b 444 972 567 918 513 972 l 264 972 l 264 0 l 444 0 b 568 122 513 0 567 54 l 568 407 b 511 486 568 407 569 468 z m 468 589 b 417 532 468 544 443 532 l 363 532 l 363 872 l 417 872 b 468 822 443 872 468 858 z m 468 150 b 417 99 468 113 443 99 l 363 99 l 363 440 l 417 440 b 468 385 443 440 468 428 z "},"C":{"ha":833,"x_min":0,"x_max":0,"o":"m 572 349 b 500 317 547 338 508 321 b 474 263 488 310 474 294 l 474 132 b 419 78 474 101 450 78 b 367 132 390 78 367 101 l 367 842 b 419 894 367 871 390 894 b 474 842 450 894 474 871 l 474 624 l 546 657 b 572 710 558 663 572 678 l 572 858 b 453 982 572 925 519 981 l 392 982 b 267 858 322 982 267 926 l 267 114 b 392 -10 267 46 322 -10 l 453 -10 b 572 114 519 -7 572 47 z "},"Ç":{"ha":833,"x_min":0,"x_max":0,"o":"m 544 656 b 572 710 557 663 572 678 l 572 858 b 451 982 572 925 518 979 l 390 982 b 267 858 322 982 267 926 l 267 114 b 390 -10 267 46 322 -10 l 393 -10 l 393 -58 l 400 -58 b 439 -99 421 -58 439 -76 b 406 -139 440 -124 421 -137 b 388 -158 390 -140 388 -158 l 386 -169 b 494 -93 386 -169 494 -179 b 440 -22 494 -56 475 -31 l 440 -10 l 451 -10 b 572 114 518 -7 572 47 l 572 349 b 500 317 547 338 508 319 b 472 263 488 310 472 294 l 472 131 b 419 78 472 101 449 78 b 367 131 390 78 367 101 l 367 840 b 419 894 367 871 390 894 b 472 840 449 894 472 871 l 472 624 b 544 656 497 635 536 653 z "},"D":{"ha":833,"x_min":0,"x_max":0,"o":"m 258 972 l 258 0 l 451 0 b 575 122 519 0 574 54 l 575 850 b 451 972 574 918 519 972 z m 476 150 b 424 99 476 113 451 99 l 358 99 l 358 872 l 424 872 b 476 822 451 872 476 858 z "},"E":{"ha":833,"x_min":0,"x_max":0,"o":"m 404 99 l 404 436 b 428 460 404 449 415 460 l 469 460 b 522 486 501 460 515 474 b 554 560 526 494 543 535 l 404 560 l 404 849 b 428 872 404 863 414 872 l 508 872 b 561 900 540 872 556 888 l 594 972 l 335 972 b 304 944 318 972 306 960 l 304 0 l 526 0 b 581 26 558 0 574 14 b 613 99 585 35 601 74 z "},"É":{"ha":833,"x_min":0,"x_max":0,"o":"m 406 1015 l 460 1132 l 535 1132 b 544 1122 535 1132 549 1133 l 515 1047 b 467 1015 503 1014 471 1015 z m 404 99 l 404 436 b 428 460 404 449 415 460 l 469 460 b 522 486 501 460 515 474 b 554 560 526 494 543 535 l 404 560 l 404 849 b 428 872 404 863 414 872 l 508 872 b 561 900 540 872 556 888 l 594 972 l 335 972 b 304 944 318 972 306 960 l 304 0 l 526 0 b 581 26 558 0 574 14 b 613 99 585 35 601 74 z "},"Ê":{"ha":833,"x_min":0,"x_max":0,"o":"m 339 1015 l 419 1132 l 489 1132 l 569 1015 l 529 1015 b 475 1047 526 1015 497 1013 l 454 1078 l 432 1047 b 379 1015 410 1013 382 1015 z m 404 99 l 404 436 b 428 460 404 449 415 460 l 469 460 b 522 486 501 460 515 474 b 554 560 526 494 543 535 l 404 560 l 404 849 b 428 872 404 863 414 872 l 508 872 b 561 900 540 872 556 888 l 594 972 l 335 972 b 304 944 318 972 306 960 l 304 0 l 526 0 b 581 26 558 0 574 14 b 613 99 585 35 601 74 z "},"È":{"ha":833,"x_min":0,"x_max":0,"o":"m 403 1014 l 349 1132 l 410 1132 b 458 1100 414 1132 446 1133 l 488 1025 b 478 1014 492 1014 478 1014 z m 404 99 l 404 436 b 428 460 404 449 415 460 l 469 460 b 522 486 501 460 515 474 b 554 560 526 494 543 535 l 404 560 l 404 849 b 428 872 404 863 414 872 l 508 872 b 561 900 540 872 556 888 l 594 972 l 335 972 b 304 944 318 972 306 960 l 304 0 l 526 0 b 581 26 558 0 574 14 b 613 99 585 35 601 74 z "},"F":{"ha":833,"x_min":0,"x_max":0,"o":"m 329 972 b 300 943 313 972 300 958 l 300 0 l 369 0 b 399 29 385 0 399 13 l 399 422 b 424 446 399 436 410 446 l 490 446 b 543 474 522 446 536 461 l 576 546 l 399 546 l 399 849 b 422 872 399 861 410 872 l 533 872 b 586 900 565 872 579 888 b 618 972 590 908 608 947 z "},"G":{"ha":833,"x_min":0,"x_max":0,"o":"m 569 858 b 449 982 569 925 515 979 l 388 982 b 264 858 319 982 264 926 l 264 114 b 388 -10 264 46 319 -10 l 449 -10 b 569 114 515 -7 569 47 l 569 468 b 521 522 569 506 551 522 l 396 522 l 429 453 b 465 421 429 453 443 421 l 469 421 l 469 131 b 417 78 469 101 446 78 b 364 131 388 78 364 101 l 364 842 b 417 894 364 871 388 894 b 469 842 446 894 469 871 l 469 619 b 542 653 496 631 535 649 b 569 707 556 660 569 674 z "},"H":{"ha":833,"x_min":0,"x_max":0,"o":"m 483 972 l 483 544 l 386 544 b 351 579 363 544 351 551 l 351 972 l 292 972 b 251 933 261 972 251 950 l 251 0 l 351 0 l 351 446 l 460 446 b 483 424 472 446 482 436 l 483 0 l 583 0 l 583 933 b 543 972 583 950 574 972 z "},"I":{"ha":694,"x_min":0,"x_max":0,"o":"m 297 972 l 297 21 b 326 0 299 14 303 0 l 397 0 l 397 933 b 357 972 397 950 386 972 z "},"Í":{"ha":694,"x_min":0,"x_max":0,"o":"m 301 1015 l 356 1132 l 431 1132 b 440 1122 431 1132 444 1133 l 411 1047 b 363 1015 399 1014 367 1015 z m 297 972 l 297 21 b 326 0 299 14 303 0 l 397 0 l 397 933 b 357 972 397 950 386 972 z "},"Î":{"ha":694,"x_min":0,"x_max":0,"o":"m 226 1015 l 307 1132 l 376 1132 l 457 1015 l 417 1015 b 363 1047 414 1015 385 1013 l 342 1078 l 319 1047 b 267 1015 297 1013 269 1015 z m 297 972 l 297 21 b 326 0 299 14 303 0 l 397 0 l 397 933 b 357 972 397 950 386 972 z "},"Ì":{"ha":694,"x_min":0,"x_max":0,"o":"m 296 1014 l 242 1132 l 303 1132 b 351 1100 307 1132 339 1133 l 381 1025 b 371 1014 385 1014 371 1014 z m 297 972 l 297 21 b 326 0 299 14 303 0 l 397 0 l 397 933 b 357 972 397 950 386 972 z "},"J":{"ha":764,"x_min":0,"x_max":0,"o":"m 399 972 l 399 131 b 346 78 399 101 375 78 b 293 131 317 78 293 101 l 293 218 b 224 186 268 207 231 190 b 196 133 210 181 196 165 l 196 114 b 317 -10 196 46 249 -10 l 379 -10 l 379 -8 b 499 114 446 -7 499 47 l 499 933 b 458 972 499 950 489 972 z "},"K":{"ha":833,"x_min":0,"x_max":0,"o":"m 622 0 l 454 532 l 611 969 l 507 969 l 385 618 l 385 972 l 318 972 b 286 935 307 971 286 965 l 286 0 l 385 0 l 385 435 l 518 0 z "},"L":{"ha":764,"x_min":0,"x_max":0,"o":"m 393 99 l 393 942 b 363 972 393 958 379 971 l 293 972 l 293 0 l 532 0 b 586 26 564 0 579 14 b 618 99 590 35 607 74 z "},"M":{"ha":861,"x_min":0,"x_max":0,"o":"m 649 972 l 588 972 b 543 938 551 972 544 942 l 433 378 l 318 936 b 274 972 318 936 313 972 l 213 972 l 213 0 l 311 0 l 311 501 l 369 247 b 444 168 375 226 386 168 l 475 168 l 550 501 l 550 0 l 649 0 z "},"N":{"ha":833,"x_min":0,"x_max":0,"o":"m 576 972 l 476 972 l 476 413 l 374 918 b 303 972 368 946 358 972 l 257 972 l 257 0 l 357 0 l 357 543 l 464 63 b 531 0 468 43 476 0 l 576 0 z "},"Ñ":{"ha":833,"x_min":0,"x_max":0,"o":"m 301 1015 b 413 1094 301 1015 289 1146 b 483 1110 458 1075 482 1074 b 499 1124 483 1126 499 1124 l 538 1124 b 432 1032 542 1094 539 988 b 356 1025 381 1053 360 1063 b 342 1015 356 1025 356 1015 z m 576 972 l 476 972 l 476 413 l 374 918 b 303 972 368 946 358 972 l 257 972 l 257 0 l 357 0 l 357 543 l 464 63 b 531 0 468 43 476 0 l 576 0 z "},"O":{"ha":833,"x_min":0,"x_max":0,"o":"m 381 982 b 256 858 311 982 256 926 l 256 113 b 381 -10 257 46 313 -10 l 457 -10 b 578 113 524 -7 576 46 l 578 858 b 457 982 578 925 524 979 z m 408 78 b 356 132 379 79 356 103 l 356 840 b 408 894 356 869 379 893 l 424 894 b 476 840 453 894 476 871 l 476 132 b 424 78 476 101 453 78 z "},"Ó":{"ha":833,"x_min":0,"x_max":0,"o":"m 378 1015 l 432 1132 l 507 1132 b 517 1122 507 1132 521 1133 l 488 1047 b 439 1015 475 1014 443 1015 z m 381 982 b 256 858 311 982 256 926 l 256 113 b 381 -10 257 46 313 -10 l 457 -10 b 578 113 524 -7 576 46 l 578 858 b 457 982 578 925 524 979 z m 408 78 b 356 132 379 79 356 103 l 356 840 b 408 894 356 869 379 893 l 424 894 b 476 840 453 894 476 871 l 476 132 b 424 78 476 101 453 78 z "},"Ô":{"ha":833,"x_min":0,"x_max":0,"o":"m 301 1015 l 382 1132 l 451 1132 l 532 1015 l 492 1015 b 438 1047 489 1015 460 1013 l 417 1078 l 394 1047 b 342 1015 372 1013 344 1015 z m 381 982 b 256 858 311 982 256 926 l 256 113 b 381 -10 257 46 313 -10 l 457 -10 b 578 113 524 -7 576 46 l 578 858 b 457 982 578 925 524 979 z m 408 78 b 356 132 379 79 356 103 l 356 840 b 408 894 356 869 379 893 l 424 894 b 476 840 453 894 476 871 l 476 132 b 424 78 476 101 453 78 z "},"Ò":{"ha":833,"x_min":0,"x_max":0,"o":"m 364 1014 l 310 1132 l 371 1132 b 419 1100 375 1132 407 1133 l 449 1025 b 439 1014 453 1014 439 1014 z m 381 982 b 256 858 311 982 256 926 l 256 113 b 381 -10 257 46 313 -10 l 457 -10 b 578 113 524 -7 576 46 l 578 858 b 457 982 578 925 524 979 z m 408 78 b 356 132 379 79 356 103 l 356 840 b 408 894 356 869 379 893 l 424 894 b 476 840 453 894 476 871 l 476 132 b 424 78 476 101 453 78 z "},"Õ":{"ha":833,"x_min":0,"x_max":0,"o":"m 293 1015 b 404 1094 293 1015 281 1146 b 475 1110 450 1075 474 1074 b 490 1124 475 1126 490 1124 l 529 1124 b 424 1032 533 1094 531 988 b 347 1025 372 1053 351 1063 b 333 1015 347 1025 347 1015 z m 381 982 b 256 858 311 982 256 926 l 256 113 b 381 -10 257 46 313 -10 l 457 -10 b 578 113 524 -7 576 46 l 578 858 b 457 982 578 925 524 979 z m 408 78 b 356 132 379 79 356 103 l 356 840 b 408 894 356 869 379 893 l 424 894 b 476 840 453 894 476 871 l 476 132 b 424 78 476 101 453 78 z "},"P":{"ha":833,"x_min":0,"x_max":0,"o":"m 290 972 l 290 21 b 318 0 290 14 294 0 l 389 0 l 389 436 l 449 436 b 590 599 544 436 590 504 l 590 850 b 464 972 590 918 531 972 z m 494 576 b 442 529 492 550 469 529 l 389 529 l 389 879 l 442 879 b 494 832 469 879 492 858 z "},"Q":{"ha":833,"x_min":0,"x_max":0,"o":"m 601 -7 l 551 100 l 551 860 b 431 983 551 926 497 982 l 356 983 b 232 860 288 983 232 928 l 232 115 b 356 -8 232 47 288 -8 l 424 -8 b 499 17 443 -8 476 -11 b 522 -7 508 -3 514 -7 z m 451 201 l 442 201 b 415 161 442 201 396 203 l 444 103 b 399 81 432 86 414 81 l 385 81 b 332 133 356 81 332 104 l 332 843 b 383 896 332 872 356 896 l 399 896 b 451 843 428 896 451 872 z "},"R":{"ha":833,"x_min":0,"x_max":0,"o":"m 567 0 l 567 372 b 531 464 567 372 569 444 b 567 550 571 474 567 550 l 567 850 b 444 972 567 918 511 972 l 263 972 l 263 0 l 363 0 l 363 418 l 415 418 b 467 356 442 418 467 403 l 467 0 z m 363 513 l 363 879 l 415 879 b 467 829 442 879 467 865 l 467 568 b 415 513 467 524 442 513 z "},"S":{"ha":833,"x_min":0,"x_max":0,"o":"m 543 761 b 571 815 556 768 571 783 l 571 853 b 450 982 571 919 517 981 l 388 982 b 263 853 318 982 263 921 l 263 753 b 307 599 263 753 258 688 l 426 375 b 469 243 426 375 469 300 l 469 132 b 417 78 469 101 446 78 b 364 131 388 78 364 101 l 364 300 b 290 268 339 289 299 271 b 263 214 278 261 263 246 l 263 114 b 383 -10 264 47 317 -7 l 446 -10 b 571 114 515 -10 571 46 l 571 238 b 526 392 571 238 575 303 l 407 617 b 364 747 407 617 364 690 l 364 840 b 417 894 364 871 388 894 b 469 840 446 894 469 871 l 469 728 b 543 761 496 739 535 757 z "},"T":{"ha":764,"x_min":0,"x_max":0,"o":"m 613 972 l 215 972 b 185 942 199 972 185 958 l 185 874 l 325 874 l 325 21 b 353 0 325 14 329 0 l 424 0 l 424 850 b 449 874 425 863 435 874 l 526 874 b 579 900 558 874 574 888 z "},"U":{"ha":833,"x_min":0,"x_max":0,"o":"m 576 972 l 476 972 l 476 132 b 424 79 476 103 453 79 l 408 79 b 357 132 379 79 357 103 l 357 972 l 286 972 b 257 944 271 972 258 960 l 257 114 b 381 -6 257 46 313 -6 l 457 -6 l 457 -4 b 576 114 522 -3 576 47 z "},"Ú":{"ha":833,"x_min":0,"x_max":0,"o":"m 378 1015 l 432 1132 l 507 1132 b 517 1122 507 1132 521 1133 l 488 1047 b 439 1015 475 1014 443 1015 z m 576 972 l 476 972 l 476 132 b 424 79 476 103 453 79 l 408 79 b 357 132 379 79 357 103 l 357 972 l 286 972 b 257 944 271 972 258 960 l 257 114 b 381 -6 257 46 313 -6 l 457 -6 l 457 -4 b 576 114 522 -3 576 47 z "},"Û":{"ha":833,"x_min":0,"x_max":0,"o":"m 301 1015 l 382 1132 l 451 1132 l 532 1015 l 492 1015 b 438 1047 489 1015 460 1013 l 417 1078 l 394 1047 b 342 1015 372 1013 344 1015 z m 576 972 l 476 972 l 476 132 b 424 79 476 103 453 79 l 408 79 b 357 132 379 79 357 103 l 357 972 l 286 972 b 257 944 271 972 258 960 l 257 114 b 381 -6 257 46 313 -6 l 457 -6 l 457 -4 b 576 114 522 -3 576 47 z "},"Ù":{"ha":833,"x_min":0,"x_max":0,"o":"m 364 1014 l 310 1132 l 371 1132 b 419 1100 375 1132 407 1133 l 449 1025 b 439 1014 453 1014 439 1014 z m 576 972 l 476 972 l 476 132 b 424 79 476 103 453 79 l 408 79 b 357 132 379 79 357 103 l 357 972 l 286 972 b 257 944 271 972 258 960 l 257 114 b 381 -6 257 46 313 -6 l 457 -6 l 457 -4 b 576 114 522 -3 576 47 z "},"V":{"ha":811,"x_min":0,"x_max":0,"o":"m 604 972 l 504 972 l 406 325 l 313 935 b 283 972 307 967 290 972 l 207 972 l 346 68 b 406 0 347 60 356 0 l 413 0 l 456 0 z "},"W":{"ha":861,"x_min":0,"x_max":0,"o":"m 710 972 l 631 972 b 601 953 610 972 603 960 l 538 419 l 472 833 l 460 833 b 374 756 396 833 379 813 l 325 419 l 258 951 b 228 972 257 958 251 972 l 151 972 l 272 0 l 364 0 l 431 493 l 499 0 l 592 0 z "},"X":{"ha":833,"x_min":0,"x_max":0,"o":"m 325 0 l 210 0 l 364 515 l 233 972 l 311 972 b 350 939 315 972 340 972 l 421 681 l 488 939 b 526 972 497 972 522 972 l 604 972 l 479 514 l 624 0 l 515 0 l 425 353 z "},"Y":{"ha":764,"x_min":0,"x_max":0,"o":"m 551 972 l 478 972 b 446 939 475 972 450 971 l 382 571 l 318 939 b 286 972 314 971 289 972 l 213 972 l 332 404 l 332 29 b 361 0 333 13 346 0 l 432 0 l 432 404 z "},"Z":{"ha":833,"x_min":0,"x_max":0,"o":"m 624 972 l 246 972 b 278 900 257 947 274 908 b 332 872 285 888 300 872 l 444 872 b 464 849 461 872 467 861 l 178 0 l 540 0 b 593 28 572 0 586 14 l 625 99 l 354 99 b 336 125 340 99 332 108 z "},"a":{"ha":778,"x_min":0,"x_max":0,"o":"m 586 0 l 476 0 l 389 669 l 301 0 l 192 0 l 339 972 l 393 972 b 446 919 435 972 442 946 z "},"á":{"ha":778,"x_min":0,"x_max":0,"o":"m 347 1015 l 401 1132 l 476 1132 b 486 1122 476 1132 490 1133 l 457 1047 b 408 1015 444 1014 413 1015 z m 586 0 l 476 0 l 389 669 l 301 0 l 192 0 l 339 972 l 393 972 b 446 919 435 972 442 946 z "},"â":{"ha":778,"x_min":0,"x_max":0,"o":"m 269 1015 l 350 1132 l 419 1132 l 500 1015 l 460 1015 b 406 1047 457 1015 428 1013 l 385 1078 l 363 1047 b 310 1015 340 1013 313 1015 z m 586 0 l 476 0 l 389 669 l 301 0 l 192 0 l 339 972 l 393 972 b 446 919 435 972 442 946 z "},"à":{"ha":778,"x_min":0,"x_max":0,"o":"m 333 1014 l 279 1132 l 340 1132 b 389 1100 344 1132 376 1133 l 418 1025 b 408 1014 422 1014 408 1014 z m 586 0 l 476 0 l 389 669 l 301 0 l 192 0 l 339 972 l 393 972 b 446 919 435 972 442 946 z "},"ã":{"ha":778,"x_min":0,"x_max":0,"o":"m 260 1015 b 371 1094 260 1015 247 1146 b 442 1110 417 1075 440 1074 b 457 1124 442 1126 457 1124 l 496 1124 b 390 1032 500 1094 497 988 b 314 1025 339 1053 318 1063 b 300 1015 314 1025 314 1015 z m 586 0 l 476 0 l 389 669 l 301 0 l 192 0 l 339 972 l 393 972 b 446 919 435 972 442 946 z "},"b":{"ha":833,"x_min":0,"x_max":0,"o":"m 511 486 b 568 565 569 504 568 565 l 568 850 b 444 972 567 918 513 972 l 264 972 l 264 0 l 444 0 b 568 122 513 0 567 54 l 568 407 b 511 486 568 407 569 468 z m 468 589 b 417 532 468 544 443 532 l 363 532 l 363 872 l 417 872 b 468 822 443 872 468 858 z m 468 150 b 417 99 468 113 443 99 l 363 99 l 363 440 l 417 440 b 468 385 443 440 468 428 z "},"c":{"ha":833,"x_min":0,"x_max":0,"o":"m 572 349 b 500 317 547 338 508 321 b 474 263 488 310 474 294 l 474 132 b 419 78 474 101 450 78 b 367 132 390 78 367 101 l 367 842 b 419 894 367 871 390 894 b 474 842 450 894 474 871 l 474 624 l 546 657 b 572 710 558 663 572 678 l 572 858 b 453 982 572 925 519 981 l 392 982 b 267 858 322 982 267 926 l 267 114 b 392 -10 267 46 322 -10 l 453 -10 b 572 114 519 -7 572 47 z "},"ç":{"ha":833,"x_min":0,"x_max":0,"o":"m 544 656 b 572 710 557 663 572 678 l 572 858 b 451 982 572 925 518 979 l 390 982 b 267 858 322 982 267 926 l 267 114 b 390 -10 267 46 322 -10 l 393 -10 l 393 -58 l 400 -58 b 439 -99 421 -58 439 -76 b 406 -139 440 -124 421 -137 b 388 -158 390 -140 388 -158 l 386 -169 b 494 -93 386 -169 494 -179 b 440 -22 494 -56 475 -31 l 440 -10 l 451 -10 b 572 114 518 -7 572 47 l 572 349 b 500 317 547 338 508 319 b 472 263 488 310 472 294 l 472 131 b 419 78 472 101 449 78 b 367 131 390 78 367 101 l 367 840 b 419 894 367 871 390 894 b 472 840 449 894 472 871 l 472 624 b 544 656 497 635 536 653 z "},"d":{"ha":833,"x_min":0,"x_max":0,"o":"m 258 972 l 258 0 l 451 0 b 575 122 519 0 574 54 l 575 850 b 451 972 574 918 519 972 z m 476 150 b 424 99 476 113 451 99 l 358 99 l 358 872 l 424 872 b 476 822 451 872 476 858 z "},"e":{"ha":833,"x_min":0,"x_max":0,"o":"m 404 99 l 404 436 b 428 460 404 449 415 460 l 469 460 b 522 486 501 460 515 474 b 554 560 526 494 543 535 l 404 560 l 404 849 b 428 872 404 863 414 872 l 508 872 b 561 900 540 872 556 888 l 594 972 l 335 972 b 304 944 318 972 306 960 l 304 0 l 526 0 b 581 26 558 0 574 14 b 613 99 585 35 601 74 z "},"é":{"ha":833,"x_min":0,"x_max":0,"o":"m 406 1015 l 460 1132 l 535 1132 b 544 1122 535 1132 549 1133 l 515 1047 b 467 1015 503 1014 471 1015 z m 404 99 l 404 436 b 428 460 404 449 415 460 l 469 460 b 522 486 501 460 515 474 b 554 560 526 494 543 535 l 404 560 l 404 849 b 428 872 404 863 414 872 l 508 872 b 561 900 540 872 556 888 l 594 972 l 335 972 b 304 944 318 972 306 960 l 304 0 l 526 0 b 581 26 558 0 574 14 b 613 99 585 35 601 74 z "},"ê":{"ha":833,"x_min":0,"x_max":0,"o":"m 339 1015 l 419 1132 l 489 1132 l 569 1015 l 529 1015 b 475 1047 526 1015 497 1013 l 454 1078 l 432 1047 b 379 1015 410 1013 382 1015 z m 404 99 l 404 436 b 428 460 404 449 415 460 l 469 460 b 522 486 501 460 515 474 b 554 560 526 494 543 535 l 404 560 l 404 849 b 428 872 404 863 414 872 l 508 872 b 561 900 540 872 556 888 l 594 972 l 335 972 b 304 944 318 972 306 960 l 304 0 l 526 0 b 581 26 558 0 574 14 b 613 99 585 35 601 74 z "},"è":{"ha":833,"x_min":0,"x_max":0,"o":"m 403 1014 l 349 1132 l 410 1132 b 458 1100 414 1132 446 1133 l 488 1025 b 478 1014 492 1014 478 1014 z m 404 99 l 404 436 b 428 460 404 449 415 460 l 469 460 b 522 486 501 460 515 474 b 554 560 526 494 543 535 l 404 560 l 404 849 b 428 872 404 863 414 872 l 508 872 b 561 900 540 872 556 888 l 594 972 l 335 972 b 304 944 318 972 306 960 l 304 0 l 526 0 b 581 26 558 0 574 14 b 613 99 585 35 601 74 z "},"f":{"ha":833,"x_min":0,"x_max":0,"o":"m 329 972 b 300 943 313 972 300 958 l 300 0 l 369 0 b 399 29 385 0 399 13 l 399 422 b 424 446 399 436 410 446 l 490 446 b 543 474 522 446 536 461 l 576 546 l 399 546 l 399 849 b 422 872 399 861 410 872 l 533 872 b 586 900 565 872 579 888 b 618 972 590 908 608 947 z "},"g":{"ha":833,"x_min":0,"x_max":0,"o":"m 569 858 b 449 982 569 925 515 979 l 388 982 b 264 858 319 982 264 926 l 264 114 b 388 -10 264 46 319 -10 l 449 -10 b 569 114 515 -7 569 47 l 569 468 b 521 522 569 506 551 522 l 396 522 l 429 453 b 465 421 429 453 443 421 l 469 421 l 469 131 b 417 78 469 101 446 78 b 364 131 388 78 364 101 l 364 842 b 417 894 364 871 388 894 b 469 842 446 894 469 871 l 469 619 b 542 653 496 631 535 649 b 569 707 556 660 569 674 z "},"h":{"ha":833,"x_min":0,"x_max":0,"o":"m 483 972 l 483 544 l 386 544 b 351 579 363 544 351 551 l 351 972 l 292 972 b 251 933 261 972 251 950 l 251 0 l 351 0 l 351 446 l 460 446 b 483 424 472 446 482 436 l 483 0 l 583 0 l 583 933 b 543 972 583 950 574 972 z "},"i":{"ha":694,"x_min":0,"x_max":0,"o":"m 297 972 l 297 21 b 326 0 299 14 303 0 l 397 0 l 397 933 b 357 972 397 950 386 972 z "},"í":{"ha":694,"x_min":0,"x_max":0,"o":"m 301 1015 l 356 1132 l 431 1132 b 440 1122 431 1132 444 1133 l 411 1047 b 363 1015 399 1014 367 1015 z m 297 972 l 297 21 b 326 0 299 14 303 0 l 397 0 l 397 933 b 357 972 397 950 386 972 z "},"î":{"ha":694,"x_min":0,"x_max":0,"o":"m 226 1015 l 307 1132 l 376 1132 l 457 1015 l 417 1015 b 363 1047 414 1015 385 1013 l 342 1078 l 319 1047 b 267 1015 297 1013 269 1015 z m 297 972 l 297 21 b 326 0 299 14 303 0 l 397 0 l 397 933 b 357 972 397 950 386 972 z "},"ì":{"ha":694,"x_min":0,"x_max":0,"o":"m 296 1014 l 242 1132 l 303 1132 b 351 1100 307 1132 339 1133 l 381 1025 b 371 1014 385 1014 371 1014 z m 297 972 l 297 21 b 326 0 299 14 303 0 l 397 0 l 397 933 b 357 972 397 950 386 972 z "},"j":{"ha":764,"x_min":0,"x_max":0,"o":"m 399 972 l 399 131 b 346 78 399 101 375 78 b 293 131 317 78 293 101 l 293 218 b 224 186 268 207 231 190 b 196 133 210 181 196 165 l 196 114 b 317 -10 196 46 249 -10 l 379 -10 l 379 -8 b 499 114 446 -7 499 47 l 499 933 b 458 972 499 950 489 972 z "},"k":{"ha":833,"x_min":0,"x_max":0,"o":"m 622 0 l 454 532 l 611 969 l 507 969 l 385 618 l 385 972 l 318 972 b 286 935 307 971 286 965 l 286 0 l 385 0 l 385 435 l 518 0 z "},"l":{"ha":764,"x_min":0,"x_max":0,"o":"m 393 99 l 393 942 b 363 972 393 958 379 971 l 293 972 l 293 0 l 532 0 b 586 26 564 0 579 14 b 618 99 590 35 607 74 z "},"m":{"ha":861,"x_min":0,"x_max":0,"o":"m 649 972 l 588 972 b 543 938 551 972 544 942 l 433 378 l 318 936 b 274 972 318 936 313 972 l 213 972 l 213 0 l 311 0 l 311 501 l 369 247 b 444 168 375 226 386 168 l 475 168 l 550 501 l 550 0 l 649 0 z "},"n":{"ha":833,"x_min":0,"x_max":0,"o":"m 576 972 l 476 972 l 476 413 l 374 918 b 303 972 368 946 358 972 l 257 972 l 257 0 l 357 0 l 357 543 l 464 63 b 531 0 468 43 476 0 l 576 0 z "},"ñ":{"ha":833,"x_min":0,"x_max":0,"o":"m 301 1015 b 413 1094 301 1015 289 1146 b 483 1110 458 1075 482 1074 b 499 1124 483 1126 499 1124 l 538 1124 b 432 1032 542 1094 539 988 b 356 1025 381 1053 360 1063 b 342 1015 356 1025 356 1015 z m 576 972 l 476 972 l 476 413 l 374 918 b 303 972 368 946 358 972 l 257 972 l 257 0 l 357 0 l 357 543 l 464 63 b 531 0 468 43 476 0 l 576 0 z "},"o":{"ha":833,"x_min":0,"x_max":0,"o":"m 381 982 b 256 858 311 982 256 926 l 256 113 b 381 -10 257 46 313 -10 l 457 -10 b 578 113 524 -7 576 46 l 578 858 b 457 982 578 925 524 979 z m 408 78 b 356 132 379 79 356 103 l 356 840 b 408 894 356 869 379 893 l 424 894 b 476 840 453 894 476 871 l 476 132 b 424 78 476 101 453 78 z "},"ó":{"ha":833,"x_min":0,"x_max":0,"o":"m 378 1015 l 432 1132 l 507 1132 b 517 1122 507 1132 521 1133 l 488 1047 b 439 1015 475 1014 443 1015 z m 381 982 b 256 858 311 982 256 926 l 256 113 b 381 -10 257 46 313 -10 l 457 -10 b 578 113 524 -7 576 46 l 578 858 b 457 982 578 925 524 979 z m 408 78 b 356 132 379 79 356 103 l 356 840 b 408 894 356 869 379 893 l 424 894 b 476 840 453 894 476 871 l 476 132 b 424 78 476 101 453 78 z "},"ô":{"ha":833,"x_min":0,"x_max":0,"o":"m 301 1015 l 382 1132 l 451 1132 l 532 1015 l 492 1015 b 438 1047 489 1015 460 1013 l 417 1078 l 394 1047 b 342 1015 372 1013 344 1015 z m 381 982 b 256 858 311 982 256 926 l 256 113 b 381 -10 257 46 313 -10 l 457 -10 b 578 113 524 -7 576 46 l 578 858 b 457 982 578 925 524 979 z m 408 78 b 356 132 379 79 356 103 l 356 840 b 408 894 356 869 379 893 l 424 894 b 476 840 453 894 476 871 l 476 132 b 424 78 476 101 453 78 z "},"ò":{"ha":833,"x_min":0,"x_max":0,"o":"m 364 1014 l 310 1132 l 371 1132 b 419 1100 375 1132 407 1133 l 449 1025 b 439 1014 453 1014 439 1014 z m 381 982 b 256 858 311 982 256 926 l 256 113 b 381 -10 257 46 313 -10 l 457 -10 b 578 113 524 -7 576 46 l 578 858 b 457 982 578 925 524 979 z m 408 78 b 356 132 379 79 356 103 l 356 840 b 408 894 356 869 379 893 l 424 894 b 476 840 453 894 476 871 l 476 132 b 424 78 476 101 453 78 z "},"õ":{"ha":833,"x_min":0,"x_max":0,"o":"m 293 1015 b 404 1094 293 1015 281 1146 b 475 1110 450 1075 474 1074 b 490 1124 475 1126 490 1124 l 529 1124 b 424 1032 533 1094 531 988 b 347 1025 372 1053 351 1063 b 333 1015 347 1025 347 1015 z m 381 982 b 256 858 311 982 256 926 l 256 113 b 381 -10 257 46 313 -10 l 457 -10 b 578 113 524 -7 576 46 l 578 858 b 457 982 578 925 524 979 z m 408 78 b 356 132 379 79 356 103 l 356 840 b 408 894 356 869 379 893 l 424 894 b 476 840 453 894 476 871 l 476 132 b 424 78 476 101 453 78 z "},"p":{"ha":833,"x_min":0,"x_max":0,"o":"m 290 972 l 290 21 b 318 0 290 14 294 0 l 389 0 l 389 436 l 449 436 b 590 599 544 436 590 504 l 590 850 b 464 972 590 918 531 972 z m 494 576 b 442 529 492 550 469 529 l 389 529 l 389 879 l 442 879 b 494 832 469 879 492 858 z "},"q":{"ha":833,"x_min":0,"x_max":0,"o":"m 601 -7 l 551 100 l 551 860 b 431 983 551 926 497 982 l 356 983 b 232 860 288 983 232 928 l 232 115 b 356 -8 232 47 288 -8 l 424 -8 b 499 17 443 -8 476 -11 b 522 -7 508 -3 514 -7 z m 451 201 l 442 201 b 415 161 442 201 396 203 l 444 103 b 399 81 432 86 414 81 l 385 81 b 332 133 356 81 332 104 l 332 843 b 383 896 332 872 356 896 l 399 896 b 451 843 428 896 451 872 z "},"r":{"ha":833,"x_min":0,"x_max":0,"o":"m 567 0 l 567 372 b 531 464 567 372 569 444 b 567 550 571 474 567 550 l 567 850 b 444 972 567 918 511 972 l 263 972 l 263 0 l 363 0 l 363 418 l 415 418 b 467 356 442 418 467 403 l 467 0 z m 363 513 l 363 879 l 415 879 b 467 829 442 879 467 865 l 467 568 b 415 513 467 524 442 513 z "},"s":{"ha":833,"x_min":0,"x_max":0,"o":"m 543 761 b 571 815 556 768 571 783 l 571 853 b 450 982 571 919 517 981 l 388 982 b 263 853 318 982 263 921 l 263 753 b 307 599 263 753 258 688 l 426 375 b 469 243 426 375 469 300 l 469 132 b 417 78 469 101 446 78 b 364 131 388 78 364 101 l 364 300 b 290 268 339 289 299 271 b 263 214 278 261 263 246 l 263 114 b 383 -10 264 47 317 -7 l 446 -10 b 571 114 515 -10 571 46 l 571 238 b 526 392 571 238 575 303 l 407 617 b 364 747 407 617 364 690 l 364 840 b 417 894 364 871 388 894 b 469 840 446 894 469 871 l 469 728 b 543 761 496 739 535 757 z "},"t":{"ha":764,"x_min":0,"x_max":0,"o":"m 613 972 l 215 972 b 185 942 199 972 185 958 l 185 874 l 325 874 l 325 21 b 353 0 325 14 329 0 l 424 0 l 424 850 b 449 874 425 863 435 874 l 526 874 b 579 900 558 874 574 888 z "},"u":{"ha":833,"x_min":0,"x_max":0,"o":"m 576 972 l 476 972 l 476 132 b 424 79 476 103 453 79 l 408 79 b 357 132 379 79 357 103 l 357 972 l 286 972 b 257 944 271 972 258 960 l 257 114 b 381 -6 257 46 313 -6 l 457 -6 l 457 -4 b 576 114 522 -3 576 47 z "},"ú":{"ha":833,"x_min":0,"x_max":0,"o":"m 378 1015 l 432 1132 l 507 1132 b 517 1122 507 1132 521 1133 l 488 1047 b 439 1015 475 1014 443 1015 z m 576 972 l 476 972 l 476 132 b 424 79 476 103 453 79 l 408 79 b 357 132 379 79 357 103 l 357 972 l 286 972 b 257 944 271 972 258 960 l 257 114 b 381 -6 257 46 313 -6 l 457 -6 l 457 -4 b 576 114 522 -3 576 47 z "},"û":{"ha":833,"x_min":0,"x_max":0,"o":"m 301 1015 l 382 1132 l 451 1132 l 532 1015 l 492 1015 b 438 1047 489 1015 460 1013 l 417 1078 l 394 1047 b 342 1015 372 1013 344 1015 z m 576 972 l 476 972 l 476 132 b 424 79 476 103 453 79 l 408 79 b 357 132 379 79 357 103 l 357 972 l 286 972 b 257 944 271 972 258 960 l 257 114 b 381 -6 257 46 313 -6 l 457 -6 l 457 -4 b 576 114 522 -3 576 47 z "},"ù":{"ha":833,"x_min":0,"x_max":0,"o":"m 364 1014 l 310 1132 l 371 1132 b 419 1100 375 1132 407 1133 l 449 1025 b 439 1014 453 1014 439 1014 z m 576 972 l 476 972 l 476 132 b 424 79 476 103 453 79 l 408 79 b 357 132 379 79 357 103 l 357 972 l 286 972 b 257 944 271 972 258 960 l 257 114 b 381 -6 257 46 313 -6 l 457 -6 l 457 -4 b 576 114 522 -3 576 47 z "},"v":{"ha":811,"x_min":0,"x_max":0,"o":"m 604 972 l 504 972 l 406 325 l 313 935 b 283 972 307 967 290 972 l 207 972 l 346 68 b 406 0 347 60 356 0 l 413 0 l 456 0 z "},"w":{"ha":861,"x_min":0,"x_max":0,"o":"m 710 972 l 631 972 b 601 953 610 972 603 960 l 538 419 l 472 833 l 460 833 b 374 756 396 833 379 813 l 325 419 l 258 951 b 228 972 257 958 251 972 l 151 972 l 272 0 l 364 0 l 431 493 l 499 0 l 592 0 z "},"x":{"ha":833,"x_min":0,"x_max":0,"o":"m 325 0 l 210 0 l 364 515 l 233 972 l 311 972 b 350 939 315 972 340 972 l 421 681 l 488 939 b 526 972 497 972 522 972 l 604 972 l 479 514 l 624 0 l 515 0 l 425 353 z "},"y":{"ha":764,"x_min":0,"x_max":0,"o":"m 551 972 l 478 972 b 446 939 475 972 450 971 l 382 571 l 318 939 b 286 972 314 971 289 972 l 213 972 l 332 404 l 332 29 b 361 0 333 13 346 0 l 432 0 l 432 404 z "},"z":{"ha":833,"x_min":0,"x_max":0,"o":"m 624 972 l 246 972 b 278 900 257 947 274 908 b 332 872 285 888 300 872 l 444 872 b 464 849 461 872 467 861 l 178 0 l 540 0 b 593 28 572 0 586 14 l 625 99 l 354 99 b 336 125 340 99 332 108 z "},"⁄":{"ha":833,"x_min":0,"x_max":0,"o":""},"\\":{"ha":833,"x_min":0,"x_max":0,"o":"m 238 1004 l 488 3 b 521 -31 496 -31 518 -31 l 596 -31 l 346 971 b 313 1004 338 1004 315 1004 z "},"·":{"ha":694,"x_min":0,"x_max":0,"o":"m 328 356 l 328 463 b 311 478 328 463 328 478 l 228 478 l 228 385 b 257 356 229 368 242 356 z "},"•":{"ha":694,"x_min":0,"x_max":0,"o":"m 328 356 l 328 463 b 311 478 328 463 328 478 l 228 478 l 228 385 b 257 356 229 368 242 356 z "},":":{"ha":694,"x_min":0,"x_max":0,"o":"m 328 363 l 244 363 b 228 379 228 363 228 379 l 228 486 l 299 486 b 328 457 314 486 326 472 z m 228 122 l 228 29 b 257 0 229 13 242 0 l 328 0 l 328 107 b 311 122 328 107 328 122 z "},",":{"ha":694,"x_min":0,"x_max":0,"o":"m 328 122 l 244 122 b 228 107 228 122 228 107 l 228 29 b 257 0 229 14 242 0 l 274 0 l 274 -12 b 249 -50 274 -12 278 -50 l 249 -79 b 328 4 249 -79 328 -79 z "},"!":{"ha":694,"x_min":0,"x_max":0,"o":"m 328 206 l 328 942 b 297 972 328 958 314 972 l 228 972 l 228 222 b 244 206 228 222 228 206 z m 228 122 l 228 28 b 258 0 229 13 242 0 l 328 0 l 328 107 b 311 122 328 107 328 122 z "},"¡":{"ha":694,"x_min":0,"x_max":0,"o":"m 328 711 l 328 806 b 297 833 326 821 314 833 l 228 833 l 228 726 b 244 711 228 726 228 711 z m 228 628 l 228 -108 b 258 -139 228 -125 242 -139 l 328 -139 l 328 611 b 311 628 328 611 328 628 z "},"#":{"ha":833,"x_min":0,"x_max":0,"o":"m 515 449 l 590 449 b 621 479 607 449 621 463 l 621 515 l 517 515 l 517 590 b 486 619 515 607 503 619 l 449 619 l 449 515 l 385 515 l 385 590 b 354 619 385 607 371 619 l 317 619 l 317 515 l 243 515 b 213 486 226 515 213 503 l 213 449 l 317 449 l 317 385 l 243 385 b 213 354 226 385 213 371 l 213 317 l 317 317 l 317 243 b 347 213 318 226 331 213 l 385 213 l 385 317 l 449 317 l 449 243 b 479 213 449 226 463 213 l 515 213 l 515 317 l 590 317 b 621 347 607 318 621 331 l 621 385 l 515 385 z m 449 449 l 449 385 l 385 385 l 385 449 z "},".":{"ha":694,"x_min":0,"x_max":0,"o":"m 328 0 l 328 107 b 311 122 328 107 328 122 l 228 122 l 228 28 b 257 0 229 13 242 0 z "},"?":{"ha":833,"x_min":0,"x_max":0,"o":"m 563 692 b 549 601 563 692 561 636 b 456 343 549 601 479 399 b 447 301 456 343 447 322 l 447 204 l 365 204 b 349 221 349 204 349 221 l 349 307 b 358 350 349 321 351 336 b 463 675 358 350 465 621 l 463 842 b 410 893 463 871 439 893 b 357 842 381 893 357 871 l 357 728 b 285 761 332 739 292 757 b 257 814 272 767 257 782 l 257 857 b 376 979 257 924 310 978 l 439 979 b 563 857 507 979 563 925 z m 347 -1 l 418 -1 b 447 26 433 -1 447 11 l 447 121 l 365 121 b 347 106 347 121 347 106 z "},"¿":{"ha":833,"x_min":0,"x_max":0,"o":"m 486 842 l 415 842 b 386 814 400 842 386 829 l 386 719 l 468 719 b 486 735 486 719 486 735 z m 271 149 b 285 239 271 149 272 204 b 378 497 285 239 354 442 b 386 539 378 497 386 518 l 386 636 l 468 636 b 485 619 485 636 485 619 l 485 533 b 475 490 485 519 482 504 b 371 165 475 490 368 219 l 371 -1 b 424 -53 371 -31 394 -53 b 476 -1 453 -53 476 -31 l 476 113 b 549 79 501 101 542 83 b 576 26 561 74 576 58 l 576 -17 b 457 -139 576 -83 524 -137 l 394 -139 b 271 -17 326 -139 271 -85 z "},"\"":{"ha":694,"x_min":0,"x_max":0,"o":"m 325 806 l 289 806 b 258 835 272 806 258 819 l 258 972 l 296 972 b 325 942 311 972 325 958 z m 436 806 l 436 942 b 407 972 436 958 424 972 l 369 972 l 369 835 b 400 806 369 819 383 806 z "},"'":{"ha":694,"x_min":0,"x_max":0,"o":"m 311 806 l 275 806 b 244 835 258 806 244 819 l 244 972 l 282 972 b 311 942 297 972 311 958 z "},";":{"ha":833,"x_min":0,"x_max":0,"o":"m 368 486 l 368 378 b 385 363 368 378 368 363 l 467 363 l 467 457 b 438 486 467 472 454 485 z m 465 122 l 465 4 b 386 -79 465 -79 386 -79 l 386 -50 b 413 -12 415 -50 413 -12 l 413 0 l 396 0 b 365 29 379 0 367 13 l 365 107 b 383 122 365 107 365 122 z "},"/":{"ha":833,"x_min":0,"x_max":0,"o":"m 596 1004 l 521 1004 b 488 971 518 1004 496 1004 l 238 -31 l 313 -31 b 346 3 315 -31 338 -31 z "},"_":{"ha":833,"x_min":0,"x_max":0,"o":"m 617 67 l 246 67 b 217 38 231 67 217 53 l 217 0 l 588 0 b 617 31 603 0 617 14 z "},"[":{"ha":694,"x_min":0,"x_max":0,"o":"m 428 38 l 413 38 b 397 54 404 38 397 44 l 397 918 b 413 935 397 928 404 935 b 428 935 424 935 426 935 b 481 963 460 935 474 950 l 514 1035 l 350 1035 b 297 968 350 1035 297 1038 l 297 4 b 350 -62 297 -65 350 -62 l 514 -62 b 481 10 503 -37 485 3 b 428 38 474 22 460 38 z "},"]":{"ha":694,"x_min":0,"x_max":0,"o":"m 200 1035 l 233 963 b 286 935 240 950 254 935 l 301 935 b 317 918 310 935 317 928 l 317 54 b 301 38 317 44 310 38 b 286 38 290 38 288 38 b 233 10 254 38 240 22 b 200 -62 229 3 211 -37 l 364 -62 b 417 4 364 -62 417 -65 l 417 968 b 364 1035 417 1038 364 1035 z "},"(":{"ha":694,"x_min":0,"x_max":0,"o":"m 428 38 l 413 38 b 397 54 404 38 397 44 l 397 918 b 413 935 397 928 404 935 b 428 935 424 935 426 935 b 481 963 460 935 474 950 l 514 1035 l 350 1035 b 297 968 350 1035 297 1038 l 297 4 b 350 -62 297 -65 350 -62 l 514 -62 b 481 10 503 -37 485 3 b 428 38 474 22 460 38 z "},")":{"ha":694,"x_min":0,"x_max":0,"o":"m 200 1035 l 233 963 b 286 935 240 950 254 935 l 301 935 b 317 918 310 935 317 928 l 317 54 b 301 38 317 44 310 38 b 286 38 290 38 288 38 b 233 10 254 38 240 22 b 200 -62 229 3 211 -37 l 364 -62 b 417 4 364 -62 417 -65 l 417 968 b 364 1035 417 1038 364 1035 z "},"–":{"ha":694,"x_min":0,"x_max":0,"o":"m 513 450 l 211 450 b 182 421 196 450 182 436 l 182 383 l 483 383 b 513 414 499 383 513 397 z "},"-":{"ha":569,"x_min":0,"x_max":0,"o":"m 375 450 l 225 450 b 194 421 208 450 194 436 l 194 383 l 344 383 b 375 414 361 383 375 397 z "},"„":{"ha":694,"x_min":0,"x_max":0,"o":"m 344 122 l 261 122 b 244 107 244 122 244 107 l 244 29 b 274 0 246 14 258 0 l 290 0 l 290 -12 b 265 -50 290 -12 294 -50 l 265 -79 b 344 4 265 -79 344 -79 z "},"“":{"ha":694,"x_min":0,"x_max":0,"o":"m 325 806 l 289 806 b 258 835 272 806 258 819 l 258 972 l 296 972 b 325 942 311 972 325 958 z m 436 806 l 436 942 b 407 972 436 958 424 972 l 369 972 l 369 835 b 400 806 369 819 383 806 z "},"”":{"ha":806,"x_min":0,"x_max":0,"o":"m 311 806 l 275 806 b 244 835 258 806 244 819 l 244 972 l 282 972 b 311 942 297 972 311 958 z m 422 806 l 422 942 b 393 972 422 958 410 972 l 356 972 l 356 835 b 386 806 356 819 369 806 z "},"‘":{"ha":693,"x_min":0,"x_max":0,"o":"m 311 806 l 275 806 b 244 835 258 806 244 819 l 244 972 l 282 972 b 311 942 297 972 311 958 z "},"’":{"ha":694,"x_min":0,"x_max":0,"o":"m 311 806 l 275 806 b 244 835 258 806 244 819 l 244 972 l 282 972 b 311 942 297 972 311 958 z "},"‚":{"ha":694,"x_min":0,"x_max":0,"o":"m 344 122 l 261 122 b 244 107 244 122 244 107 l 244 29 b 274 0 246 14 258 0 l 290 0 l 290 -12 b 265 -50 290 -12 294 -50 l 265 -79 b 344 4 265 -79 344 -79 z "}," ":{"ha":833,"x_min":0,"x_max":0,"o":""},"¢":{"ha":833,"x_min":0,"x_max":0,"o":"m 542 682 b 569 736 556 689 569 704 l 569 786 b 467 908 569 847 525 899 l 467 953 b 436 982 467 968 453 982 l 367 982 l 367 908 b 264 786 308 899 264 847 l 264 186 b 367 64 264 125 308 75 l 367 19 b 397 -10 367 4 381 -10 l 467 -10 l 467 65 b 569 186 525 75 569 125 l 569 325 l 497 292 b 469 238 485 286 469 271 l 469 204 b 417 150 469 174 446 150 b 364 204 388 150 364 174 l 364 769 b 417 822 364 799 388 822 b 469 769 446 822 469 799 l 469 649 b 542 682 494 660 535 678 z "},"$":{"ha":833,"x_min":0,"x_max":0,"o":"m 533 733 b 561 785 546 739 560 754 b 458 911 561 844 517 900 l 458 953 b 428 982 458 968 444 982 l 358 982 l 358 910 b 256 783 300 900 256 844 l 256 725 b 299 571 256 725 250 660 l 418 347 b 461 217 418 347 461 274 l 461 201 b 408 149 461 172 438 149 b 356 200 379 149 356 171 l 356 335 l 282 301 b 256 249 269 296 256 281 l 256 183 b 358 63 256 122 300 72 l 358 19 b 389 -10 358 4 372 -10 l 458 -10 l 458 63 b 561 185 517 72 561 124 l 561 211 b 517 365 561 211 565 276 l 399 589 b 356 719 399 589 356 663 l 356 772 b 408 825 356 801 379 825 b 461 772 438 825 461 801 l 461 700 b 533 733 486 711 526 729 z "},"€":{"ha":833,"x_min":0,"x_max":0,"o":"m 567 754 b 594 807 579 760 594 775 l 594 858 b 474 982 594 925 540 979 l 413 982 b 288 858 343 982 288 926 l 288 576 l 233 576 b 203 546 217 575 203 563 l 203 508 l 288 508 l 288 465 l 233 465 b 203 435 217 464 203 451 l 203 397 l 288 397 l 288 114 b 413 -10 288 46 343 -10 l 474 -10 b 593 114 540 -7 593 47 l 594 253 b 521 219 568 242 529 224 b 494 165 508 213 494 199 l 494 131 b 440 78 494 101 471 78 b 388 131 411 78 388 101 l 388 397 l 515 397 b 546 428 532 397 546 411 l 546 465 l 388 465 l 388 508 l 515 508 b 546 539 532 508 546 522 l 546 576 l 388 576 l 388 840 b 440 894 388 871 411 894 b 494 840 471 894 494 871 l 494 721 z "},"£":{"ha":833,"x_min":0,"x_max":0,"o":"m 643 99 l 394 99 b 378 122 382 99 374 108 b 438 440 442 278 444 367 l 535 440 b 564 471 551 440 564 454 l 564 540 l 415 540 b 367 738 394 604 364 667 l 367 840 b 419 893 367 869 390 893 b 472 840 449 893 472 869 l 472 728 b 546 761 497 740 538 757 b 572 815 558 768 572 783 l 572 851 b 453 981 572 919 519 979 l 386 981 b 267 851 319 979 267 919 l 267 742 b 268 728 267 738 267 733 b 294 593 271 682 281 636 b 314 540 300 575 307 558 l 274 540 b 244 510 257 540 244 526 l 244 440 l 339 440 b 325 281 346 378 338 336 b 210 0 304 182 260 86 l 561 0 b 610 25 590 0 604 13 z "},"=":{"ha":833,"x_min":0,"x_max":0,"o":"m 599 506 l 264 506 b 235 475 249 506 235 492 l 235 439 l 569 439 b 599 468 585 439 599 453 z m 599 394 l 599 357 b 569 328 599 340 585 328 l 235 328 l 235 364 b 264 394 235 381 249 394 z "},"%":{"ha":833,"x_min":0,"x_max":0,"o":"m 596 1004 l 346 1 b 313 -32 338 -32 315 -32 l 238 -32 l 488 971 b 521 1004 496 1004 518 1004 z m 307 728 l 307 835 b 290 851 307 835 307 851 l 208 851 l 208 757 b 238 728 208 742 221 729 z m 625 121 l 625 228 b 608 243 625 228 625 243 l 526 243 l 526 150 b 556 121 526 135 539 121 z "},"+":{"ha":833,"x_min":0,"x_max":0,"o":"m 599 451 l 450 451 l 450 569 b 421 599 450 586 436 599 l 383 599 l 383 451 l 264 451 b 235 421 249 450 235 438 l 235 383 l 383 383 l 383 265 b 413 235 383 249 397 235 l 450 235 l 450 383 l 569 383 b 599 414 585 383 599 397 z "},"@":{"ha":833,"x_min":0,"x_max":0,"o":"m 735 282 b 444 160 683 208 543 160 b 200 246 338 160 256 189 b 117 524 125 325 113 440 b 431 814 119 592 151 814 b 672 582 574 814 672 718 b 508 374 672 535 661 383 l 347 374 b 306 415 325 374 306 392 b 347 457 306 439 325 457 l 436 457 b 529 554 486 461 529 504 l 529 604 b 428 699 528 657 481 699 l 340 699 b 299 678 315 699 303 688 b 272 619 294 671 281 640 l 418 619 b 461 578 442 619 461 601 b 418 536 461 554 442 536 l 346 536 l 339 536 b 236 442 286 536 239 494 l 236 392 b 339 294 236 338 285 294 l 503 294 b 749 582 685 301 749 453 b 431 890 749 761 615 890 b 40 528 258 890 51 796 b 144 193 36 429 50 292 b 444 82 214 119 315 82 b 797 238 565 82 729 140 z "},"&":{"ha":833,"x_min":0,"x_max":0,"o":"m 410 421 l 639 0 l 749 0 l 469 510 l 531 599 b 574 764 579 688 574 764 l 574 851 b 450 981 574 919 518 981 l 388 981 b 268 851 321 978 268 918 l 268 753 b 313 599 268 753 264 688 l 360 513 l 279 393 b 225 228 225 311 225 228 l 225 124 b 349 0 225 56 281 0 l 571 0 l 524 88 l 378 88 b 325 140 349 88 325 111 l 325 226 b 379 375 325 299 379 375 z m 421 601 l 413 617 b 368 747 413 617 368 690 l 368 840 b 421 893 368 869 392 893 b 474 840 450 893 474 869 l 474 758 b 431 617 474 678 431 617 z "},"™":{"ha":1625,"x_min":0,"x_max":0,"o":"m 613 972 l 215 972 b 185 942 199 972 185 958 l 185 874 l 325 874 l 325 21 b 353 0 325 14 329 0 l 424 0 l 424 850 b 449 874 425 863 435 874 l 526 874 b 579 900 558 874 574 888 z m 1413 972 l 1351 972 b 1307 938 1315 972 1308 942 l 1197 378 l 1082 936 b 1038 972 1082 936 1076 972 l 976 972 l 976 0 l 1075 0 l 1075 501 l 1133 247 b 1208 168 1139 226 1150 168 l 1239 168 l 1314 501 l 1314 0 l 1413 0 z "},"´":{"ha":833,"x_min":0,"x_max":0,"o":"m 378 1015 l 432 1132 l 507 1132 b 517 1122 507 1132 521 1133 l 488 1047 b 439 1015 475 1014 443 1015 z "},"¸":{"ha":833,"x_min":0,"x_max":0,"o":"m 438 4 l 390 4 l 390 -57 l 396 -57 b 436 -97 418 -57 436 -75 b 403 -137 438 -122 418 -136 b 385 -157 388 -139 385 -157 l 383 -168 b 492 -92 383 -168 492 -178 b 438 -21 492 -54 472 -29 z "},"ˆ":{"ha":833,"x_min":0,"x_max":0,"o":"m 301 1015 l 382 1132 l 451 1132 l 532 1015 l 492 1015 b 438 1047 489 1015 460 1013 l 417 1078 l 394 1047 b 342 1015 372 1013 344 1015 z "},"`":{"ha":833,"x_min":0,"x_max":0,"o":"m 364 1014 l 310 1132 l 371 1132 b 419 1100 375 1132 407 1133 l 449 1025 b 439 1014 453 1014 439 1014 z "},"˜":{"ha":833,"x_min":0,"x_max":0,"o":"m 300 1015 b 411 1094 300 1015 288 1146 b 482 1110 457 1075 481 1074 b 497 1124 482 1126 497 1124 l 536 1124 b 431 1032 540 1094 538 988 b 354 1025 379 1053 358 1063 b 340 1015 354 1025 354 1015 z "}}}
